<?xml version="1.0" encoding="UTF-8"?>
<svg xmlns="http://www.w3.org/2000/svg" xmlns:xlink="http://www.w3.org/1999/xlink" width="292px" height="100px" viewBox="0 0 291 100" version="1.1">
<g id="surface1">
<path style=" stroke:none;fill-rule:nonzero;fill:rgb(0%,0%,0%);fill-opacity:1;" d="M 116.398438 48.152344 C 116.398438 82.027344 116.398438 82.199219 116.886719 82.199219 C 117.371094 82.199219 117.371094 82.027344 117.371094 48.152344 C 117.371094 14.273438 117.371094 14.105469 116.886719 14.105469 C 116.398438 14.105469 116.398438 14.273438 116.398438 48.152344 Z M 116.398438 48.152344 "/>
<path style=" stroke:none;fill-rule:nonzero;fill:rgb(0%,0%,0%);fill-opacity:1;" d="M 57.109375 24.707031 C 54.78125 25.21875 51.363281 26.898438 49.519531 28.429688 C 45.566406 31.738281 42.996094 36.988281 42.558594 42.703125 C 42.148438 48.03125 44.109375 53.816406 47.722656 57.878906 C 49.371094 59.726562 52.597656 61.917969 54.878906 62.71875 L 56.503906 63.277344 L 56.503906 69.648438 C 56.503906 76.703125 56.597656 77.1875 57.789062 76.726562 C 58.128906 76.582031 61.667969 73.613281 65.621094 70.085938 L 72.824219 63.714844 L 76.386719 63.714844 C 79.128906 63.714844 80.363281 63.59375 81.796875 63.230469 C 88.148438 61.601562 93.144531 56.542969 95.109375 49.683594 C 95.570312 48.078125 95.667969 47.203125 95.667969 44.015625 C 95.667969 39.6875 95.277344 37.863281 93.628906 34.582031 C 91.277344 29.886719 87.710938 26.75 82.886719 25.121094 L 80.875 24.441406 L 69.839844 24.390625 C 60.746094 24.34375 58.515625 24.417969 57.109375 24.707031 Z M 80.65625 26.726562 C 85.457031 27.652344 89.796875 31.203125 92.027344 36.089844 C 93.339844 38.910156 93.703125 40.613281 93.703125 44.015625 C 93.726562 47.59375 93.21875 49.734375 91.617188 52.871094 C 90.210938 55.617188 87.179688 58.683594 84.632812 59.898438 C 81.84375 61.257812 80.460938 61.527344 76.195312 61.527344 C 73.890625 61.527344 72.289062 61.625 71.972656 61.792969 C 71.683594 61.964844 68.601562 64.589844 65.136719 67.679688 L 58.804688 73.273438 L 58.734375 67.703125 C 58.660156 61.527344 58.660156 61.480469 57.035156 61.164062 C 56.550781 61.066406 55.21875 60.578125 54.101562 60.042969 C 52.355469 59.21875 51.699219 58.730469 49.859375 56.832031 C 46.511719 53.429688 45.007812 50.074219 44.691406 45.304688 C 44.351562 40.027344 46.097656 35.019531 49.566406 31.394531 C 51.894531 28.964844 54.707031 27.335938 57.59375 26.75 C 58.976562 26.484375 79.226562 26.460938 80.65625 26.726562 Z M 80.65625 26.726562 "/>
<path style=" stroke:none;fill-rule:nonzero;fill:rgb(0%,0%,0%);fill-opacity:1;" d="M 58.589844 35.675781 C 58.515625 35.75 58.441406 37.71875 58.441406 40.054688 L 58.441406 44.261719 L 57.011719 44.261719 L 56.9375 42.242188 C 56.890625 40.660156 56.792969 40.25 56.503906 40.25 C 56.210938 40.25 56.113281 40.660156 56.066406 42.242188 L 55.992188 44.261719 L 55.289062 44.261719 C 54.636719 44.261719 54.585938 44.210938 54.515625 43.09375 C 54.464844 42.460938 54.34375 41.949219 54.199219 41.949219 C 54.054688 41.949219 53.933594 43.140625 53.882812 44.917969 C 53.835938 47.472656 53.882812 47.910156 54.199219 47.910156 C 54.488281 47.910156 54.5625 47.617188 54.5625 46.570312 C 54.5625 45.257812 54.5625 45.234375 55.289062 45.234375 L 55.992188 45.234375 L 56.066406 47.347656 C 56.113281 49.050781 56.210938 49.488281 56.503906 49.488281 C 56.792969 49.488281 56.890625 49.050781 56.9375 47.347656 L 57.011719 45.234375 L 58.441406 45.234375 L 58.492188 49.660156 C 58.539062 52.433594 58.660156 54.109375 58.804688 54.109375 C 58.953125 54.109375 59.074219 52.433594 59.121094 49.660156 L 59.171875 45.234375 L 60.625 45.234375 L 60.625 47.714844 C 60.625 50.21875 60.820312 51.046875 61.328125 50.730469 C 61.496094 50.609375 61.59375 49.585938 61.59375 47.882812 L 61.59375 45.234375 L 62.324219 45.234375 C 63.050781 45.234375 63.050781 45.257812 63.050781 46.570312 C 63.050781 47.59375 63.121094 47.910156 63.414062 47.910156 C 63.703125 47.910156 63.777344 47.59375 63.777344 46.570312 C 63.777344 45.257812 63.777344 45.234375 64.503906 45.234375 L 65.207031 45.234375 L 65.28125 47.347656 C 65.328125 49.050781 65.425781 49.488281 65.71875 49.488281 C 66.007812 49.488281 66.105469 49.050781 66.152344 47.347656 L 66.226562 45.234375 L 67.632812 45.234375 L 67.707031 48.152344 C 67.753906 49.902344 67.875 51.070312 68.019531 51.070312 C 68.167969 51.070312 68.289062 49.902344 68.335938 48.152344 L 68.410156 45.234375 L 70.105469 45.234375 L 70.058594 49.148438 C 70.058594 51.289062 70.105469 53.113281 70.15625 53.1875 C 70.640625 53.671875 70.808594 52.652344 70.808594 49.101562 L 70.808594 45.234375 L 72.265625 45.234375 L 72.265625 46.910156 C 72.265625 48.445312 72.53125 49.171875 72.917969 48.785156 C 72.992188 48.710938 73.039062 47.882812 73.015625 46.9375 L 72.96875 45.234375 L 73.816406 45.234375 C 74.664062 45.234375 74.691406 45.257812 74.691406 46.230469 C 74.691406 47.496094 75.273438 47.398438 75.367188 46.132812 C 75.441406 45.332031 75.515625 45.234375 76.144531 45.234375 L 76.871094 45.234375 L 76.921875 49.171875 C 76.992188 52.503906 77.042969 53.136719 77.359375 53.136719 C 77.671875 53.136719 77.722656 52.503906 77.792969 49.171875 L 77.84375 45.234375 L 79.296875 45.234375 L 79.296875 47.421875 C 79.296875 49.199219 79.371094 49.609375 79.660156 49.609375 C 79.953125 49.609375 80.023438 49.199219 80.023438 47.421875 L 80.023438 45.234375 L 81.480469 45.234375 L 81.480469 48.101562 C 81.480469 49.683594 81.554688 51.070312 81.648438 51.144531 C 81.722656 51.242188 81.941406 51.191406 82.132812 51.046875 C 82.351562 50.851562 82.449219 50.023438 82.449219 48.003906 L 82.449219 45.234375 L 83.175781 45.234375 C 83.855469 45.234375 83.90625 45.28125 83.90625 46.207031 C 83.90625 46.910156 84.003906 47.179688 84.269531 47.179688 C 84.585938 47.179688 84.632812 46.8125 84.585938 44.941406 C 84.535156 43.433594 84.414062 42.679688 84.21875 42.605469 C 84.003906 42.558594 83.90625 42.800781 83.90625 43.386719 C 83.90625 44.1875 83.855469 44.261719 83.175781 44.261719 L 82.472656 44.261719 L 82.402344 41.535156 C 82.328125 39.152344 82.28125 38.789062 81.917969 38.714844 C 81.527344 38.644531 81.480469 38.886719 81.480469 41.441406 L 81.480469 44.261719 L 80.023438 44.261719 L 80.023438 42.195312 C 80.023438 40.515625 79.953125 40.125 79.660156 40.125 C 79.371094 40.125 79.296875 40.515625 79.296875 42.195312 L 79.296875 44.261719 L 77.84375 44.261719 L 77.84375 40.660156 C 77.84375 37.160156 77.671875 36.257812 77.140625 36.574219 C 76.96875 36.699219 76.871094 38.011719 76.871094 40.515625 L 76.871094 44.261719 L 76.167969 44.261719 C 75.539062 44.261719 75.441406 44.164062 75.367188 43.484375 C 75.273438 42.363281 74.691406 42.289062 74.691406 43.386719 C 74.691406 44.238281 74.664062 44.261719 73.816406 44.261719 L 72.96875 44.261719 L 73.015625 42.851562 C 73.039062 42.070312 72.992188 41.292969 72.894531 41.148438 C 72.53125 40.539062 72.265625 41.171875 72.265625 42.703125 L 72.265625 44.261719 L 70.808594 44.261719 L 70.808594 40.515625 C 70.808594 37.0625 70.640625 36.066406 70.15625 36.550781 C 70.105469 36.625 70.058594 38.398438 70.058594 40.46875 L 70.105469 44.261719 L 68.386719 44.261719 L 68.386719 41.464844 C 68.386719 39.128906 68.3125 38.667969 68.019531 38.667969 C 67.730469 38.667969 67.65625 39.128906 67.65625 41.464844 L 67.65625 44.261719 L 66.226562 44.261719 L 66.152344 42.242188 C 66.105469 40.660156 66.007812 40.25 65.71875 40.25 C 65.425781 40.25 65.328125 40.660156 65.28125 42.242188 L 65.207031 44.261719 L 64.503906 44.261719 C 63.851562 44.261719 63.800781 44.210938 63.730469 43.09375 C 63.679688 42.460938 63.558594 41.949219 63.414062 41.949219 C 63.292969 41.949219 63.148438 42.460938 63.097656 43.09375 C 63.027344 44.210938 62.976562 44.261719 62.296875 44.261719 L 61.59375 44.261719 L 61.59375 41.878906 C 61.59375 40.589844 61.472656 39.347656 61.351562 39.152344 C 60.890625 38.449219 60.625 39.421875 60.625 41.878906 L 60.625 44.261719 L 59.171875 44.261719 L 59.171875 40.027344 C 59.171875 36.164062 59.046875 35.214844 58.589844 35.675781 Z M 58.589844 35.675781 "/>
<path style=" stroke:none;fill-rule:nonzero;fill:rgb(0%,0%,0%);fill-opacity:1;" d="M 162.355469 30.277344 C 161.140625 31.46875 161.988281 33.558594 163.6875 33.558594 C 165.433594 33.558594 166.332031 31.226562 164.996094 30.179688 C 164.125 29.5 163.082031 29.523438 162.355469 30.277344 Z M 162.355469 30.277344 "/>
<path style=" stroke:none;fill-rule:nonzero;fill:rgb(0%,0%,0%);fill-opacity:1;" d="M 215.824219 35.871094 L 215.824219 38.179688 L 212.1875 38.179688 L 212.1875 40.371094 L 215.824219 40.371094 L 215.824219 46.5 C 215.824219 49.878906 215.921875 53.308594 216.066406 54.085938 C 216.335938 55.738281 217.207031 57.199219 218.324219 57.878906 C 220.191406 59.023438 223.5625 59.023438 225.429688 57.878906 L 226.253906 57.367188 L 225.765625 56.421875 L 225.28125 55.472656 L 224.265625 55.933594 C 222.953125 56.515625 221.523438 56.542969 220.433594 55.984375 C 218.855469 55.203125 218.808594 54.886719 218.664062 47.226562 L 218.539062 40.371094 L 224.796875 40.371094 L 224.796875 38.207031 L 221.71875 38.132812 L 218.613281 38.058594 L 218.539062 35.796875 L 218.46875 33.558594 L 215.824219 33.558594 Z M 215.824219 35.871094 "/>
<path style=" stroke:none;fill-rule:nonzero;fill:rgb(0%,0%,0%);fill-opacity:1;" d="M 146.46875 38.277344 C 143.050781 39.03125 141.257812 40.976562 141.28125 43.894531 C 141.304688 47.25 143.195312 48.636719 149.257812 49.734375 C 150.445312 49.953125 151.976562 50.363281 152.605469 50.632812 C 154.351562 51.386719 154.933594 52.894531 154.109375 54.476562 C 152.921875 56.808594 147.199219 57.050781 143.097656 54.960938 L 141.667969 54.253906 L 141.039062 55.277344 C 140.335938 56.46875 140.382812 56.566406 142.515625 57.539062 C 145.523438 58.902344 149.984375 59.191406 152.96875 58.21875 C 154.472656 57.734375 156.339844 56.175781 156.800781 55.035156 C 157.238281 54.011719 157.238281 51.996094 156.800781 50.996094 C 156.023438 49.171875 154.277344 48.226562 150.230469 47.421875 C 148.773438 47.128906 147.050781 46.742188 146.445312 46.546875 C 143.367188 45.550781 143.050781 42.414062 145.886719 40.976562 C 146.664062 40.589844 147.320312 40.492188 149.5 40.492188 C 151.976562 40.492188 152.289062 40.539062 153.769531 41.246094 L 155.371094 42.023438 L 155.902344 40.90625 C 156.507812 39.664062 156.535156 39.664062 154.546875 38.910156 C 152.046875 37.960938 148.945312 37.71875 146.46875 38.277344 Z M 146.46875 38.277344 "/>
<path style=" stroke:none;fill-rule:nonzero;fill:rgb(0%,0%,0%);fill-opacity:1;" d="M 180.636719 38.277344 C 179.085938 38.691406 177.460938 39.714844 176.46875 40.855469 C 176.03125 41.390625 175.570312 41.828125 175.496094 41.828125 C 175.398438 41.828125 175.328125 41 175.328125 40.003906 L 175.328125 38.179688 L 172.902344 38.179688 L 172.902344 66.148438 L 175.570312 66.148438 L 175.570312 54.863281 L 176.710938 56.007812 C 178.84375 58.171875 181.851562 59.121094 184.90625 58.632812 C 190.144531 57.832031 193.492188 53.84375 193.515625 48.394531 C 193.539062 43.335938 190.726562 39.496094 186.144531 38.277344 C 184.640625 37.863281 182.140625 37.863281 180.636719 38.277344 Z M 186.507812 41.050781 C 188.035156 41.78125 189.34375 43.140625 190.097656 44.746094 C 190.628906 45.914062 190.726562 46.402344 190.726562 48.394531 C 190.703125 50.414062 190.628906 50.875 190.046875 52.089844 C 188.714844 54.839844 186.214844 56.296875 182.917969 56.273438 C 179.960938 56.226562 177.484375 54.597656 176.199219 51.824219 C 175.789062 50.925781 175.691406 50.242188 175.691406 48.273438 C 175.691406 46.183594 175.789062 45.671875 176.296875 44.625 C 177.121094 42.949219 178.625 41.511719 180.203125 40.878906 C 181.996094 40.175781 184.90625 40.25 186.507812 41.050781 Z M 186.507812 41.050781 "/>
<path style=" stroke:none;fill-rule:nonzero;fill:rgb(0%,0%,0%);fill-opacity:1;" d="M 206.5625 38.300781 C 205.007812 38.714844 203.894531 39.46875 202.730469 40.808594 L 201.761719 41.949219 L 201.761719 38.179688 L 199.335938 38.179688 L 199.335938 58.609375 L 201.976562 58.609375 L 202.050781 52.089844 C 202.125 45.914062 202.148438 45.550781 202.679688 44.382812 C 203.75 42.046875 205.445312 40.878906 207.992188 40.660156 L 209.519531 40.539062 L 209.519531 37.9375 L 208.621094 37.960938 C 208.113281 37.960938 207.191406 38.132812 206.5625 38.300781 Z M 206.5625 38.300781 "/>
<path style=" stroke:none;fill-rule:nonzero;fill:rgb(0%,0%,0%);fill-opacity:1;" d="M 235.371094 38.398438 C 232.507812 39.347656 230.300781 41.414062 229.136719 44.261719 C 228.410156 46.035156 228.339844 50.046875 228.992188 51.96875 C 229.671875 53.890625 231.199219 55.859375 232.871094 56.929688 C 235.007812 58.316406 236.484375 58.683594 239.445312 58.558594 C 241.652344 58.488281 242.113281 58.390625 243.519531 57.683594 C 244.925781 57.003906 246.863281 55.300781 246.863281 54.765625 C 246.863281 54.570312 245.289062 53.5 244.972656 53.5 C 244.875 53.5 244.414062 53.867188 243.980469 54.328125 C 241.480469 56.90625 236.269531 56.859375 233.550781 54.230469 C 230.398438 51.167969 230.375 45.550781 233.480469 42.484375 C 234.957031 41.027344 236.605469 40.371094 238.8125 40.371094 C 240.972656 40.371094 242.476562 40.90625 243.882812 42.195312 L 245.023438 43.214844 L 245.945312 42.605469 C 246.453125 42.289062 246.863281 41.902344 246.863281 41.78125 C 246.863281 41.292969 244.5625 39.300781 243.277344 38.714844 C 241.382812 37.839844 237.503906 37.695312 235.371094 38.398438 Z M 235.371094 38.398438 "/>
<path style=" stroke:none;fill-rule:nonzero;fill:rgb(0%,0%,0%);fill-opacity:1;" d="M 162.304688 41.511719 C 162.402344 43.335938 162.476562 47.933594 162.476562 51.726562 L 162.476562 58.609375 L 165.140625 58.609375 L 165.140625 38.179688 L 162.160156 38.179688 Z M 162.304688 41.511719 "/>
</g>
</svg>
