<svg width="170" height="50" viewBox="0 0 170 50" fill="none" xmlns="http://www.w3.org/2000/svg">
<path d="M24.9127 1.01172C11.6776 1.01172 1.01172 11.6776 1.01172 24.9127C1.01172 38.1477 11.6776 48.8915 24.9127 48.8915C38.1477 48.8915 48.8915 38.1477 48.8915 24.9127C48.8915 11.6776 38.1477 1.01172 24.9127 1.01172ZM24.9127 46.1666C13.2347 46.1666 3.73658 36.5907 3.73658 24.9127C3.73658 13.2347 13.2347 3.73658 24.9127 3.73658C36.5907 3.73658 46.1666 13.2347 46.1666 24.9127C46.1666 36.5907 36.5907 46.1666 24.9127 46.1666Z" fill="#262A25"/>
<path d="M24.9128 11.6758C17.5946 11.6758 11.6777 17.5926 11.6777 24.9108C11.6777 32.229 17.5946 38.1459 24.9128 38.1459C25.6913 38.1459 26.3141 37.5231 26.3141 36.7445V13.0771C26.3141 12.2986 25.6913 11.6758 24.9128 11.6758ZM23.5893 35.3432C18.451 34.6425 14.4805 30.2827 14.4805 24.9108C14.4805 19.6168 18.451 15.1792 23.5893 14.4785V35.3432Z" fill="#7E7E7E"/>
<path d="M77.7479 25.0781C79.8636 25.5381 81.4887 26.4579 82.6232 27.8377C83.7883 29.1869 84.3709 30.9346 84.3709 33.081C84.3709 35.8406 83.3437 37.9716 81.2894 39.474C79.2657 40.9458 76.2608 41.6817 72.2747 41.6817H57.4648V9.48641H71.3548C74.9423 9.48641 77.7172 10.207 79.6796 11.6481C81.6727 13.0892 82.6692 15.1283 82.6692 17.7652C82.6692 19.5436 82.2246 21.0614 81.3354 22.3185C80.4768 23.545 79.281 24.4649 77.7479 25.0781ZM60.8683 12.292V23.9743H71.1249C73.7311 23.9743 75.7395 23.4837 77.15 22.5025C78.5604 21.4907 79.2657 20.0342 79.2657 18.1331C79.2657 16.2321 78.5604 14.791 77.15 13.8098C75.7395 12.7979 73.7311 12.292 71.1249 12.292H60.8683ZM72.2287 38.8761C75.1109 38.8761 77.288 38.3855 78.7597 37.4043C80.2315 36.4232 80.9674 34.89 80.9674 32.805C80.9674 28.7883 78.0545 26.7799 72.2287 26.7799H60.8683V38.8761H72.2287Z" fill="#262A25"/>
<path d="M91.4496 7.55469H94.7151V41.6817H91.4496V7.55469Z" fill="#262A25"/>
<path d="M103.801 17.4892H107.067V41.6817H103.801V17.4892ZM105.457 12.2C104.782 12.2 104.215 11.97 103.755 11.5101C103.295 11.0502 103.065 10.4983 103.065 9.85435C103.065 9.24111 103.295 8.70452 103.755 8.24459C104.215 7.78465 104.782 7.55469 105.457 7.55469C106.132 7.55469 106.699 7.78465 107.159 8.24459C107.619 8.67386 107.849 9.19512 107.849 9.80836C107.849 10.4829 107.619 11.0502 107.159 11.5101C106.699 11.97 106.132 12.2 105.457 12.2Z" fill="#262A25"/>
<path d="M128.479 17.3053C131.515 17.3053 133.922 18.1945 135.7 19.9729C137.509 21.7206 138.414 24.2809 138.414 27.6538V41.6817H135.148V27.9757C135.148 25.4614 134.52 23.545 133.263 22.2266C132.005 20.9081 130.212 20.2488 127.881 20.2488C125.275 20.2488 123.205 21.0307 121.672 22.5945C120.17 24.1276 119.419 26.2586 119.419 28.9876V41.6817H116.153V17.4892H119.281V21.9506C120.17 20.4788 121.396 19.3443 122.96 18.5471C124.554 17.7192 126.394 17.3053 128.479 17.3053Z" fill="#262A25"/>
<path d="M156.248 29.5395L150.545 34.7827V41.6817H147.279V7.55469H150.545V30.6893L164.987 17.4892H169.034L158.686 27.3778L170 41.6817H165.999L156.248 29.5395Z" fill="#262A25"/>
</svg>
